<?xml version="1.0" encoding="UTF-8"?>
<svg version="1.1" xmlns="http://www.w3.org/2000/svg" width="393" height="416">
<path d="M0 0 C3.39594814 0.07918847 6.7919901 0.14571407 10.18823242 0.2109375 C12.34514936 0.25707529 14.50205126 0.30392299 16.65893555 0.3515625 C17.67539658 0.37141205 18.6918576 0.3912616 19.73912048 0.41171265 C20.66841873 0.43488556 21.59771698 0.45805847 22.55517578 0.48193359 C23.37517563 0.50049408 24.19517548 0.51905457 25.0400238 0.53817749 C26.9128418 0.703125 26.9128418 0.703125 27.9128418 1.703125 C28.00693659 3.72806731 28.03027301 5.7563237 28.02636719 7.78344727 C28.02624634 9.10300415 28.02612549 10.42256104 28.02600098 11.78210449 C28.02096449 13.19458055 28.01579785 14.60705615 28.01049805 16.01953125 C28.00949097 17.29630737 28.00848389 18.5730835 28.00744629 19.8885498 C28.00219446 24.68091727 27.98823336 29.47327199 27.9753418 34.265625 C27.9547168 44.97 27.9340918 55.674375 27.9128418 66.703125 C6.4628418 66.703125 -14.9871582 66.703125 -37.0871582 66.703125 C-36.7571582 69.343125 -36.4271582 71.983125 -36.0871582 74.703125 C-36.0086853 76.71822874 -35.96904957 78.73532721 -35.97363281 80.75195312 C-35.97375366 81.88793945 -35.97387451 83.02392578 -35.97399902 84.19433594 C-35.97911499 85.36254883 -35.98423096 86.53076172 -35.98950195 87.734375 C-35.99050903 88.82717773 -35.99151611 89.91998047 -35.99255371 91.04589844 C-35.99775561 95.09831808 -36.01171672 99.15072268 -36.0246582 103.203125 C-36.0452832 112.278125 -36.0659082 121.353125 -36.0871582 130.703125 C-57.5371582 130.703125 -78.9871582 130.703125 -101.0871582 130.703125 C-101.0871582 150.503125 -101.0871582 170.303125 -101.0871582 190.703125 C-84.42286657 191.53768326 -84.42286657 191.53768326 -68.0871582 189.703125 C-67.4271582 190.033125 -66.7671582 190.363125 -66.0871582 190.703125 C-64.16265731 190.77636259 -62.23559298 190.78670856 -60.30981445 190.765625 C-59.15674805 190.75789062 -58.00368164 190.75015625 -56.81567383 190.7421875 C-54.37556922 190.71618745 -51.93546505 190.69014592 -49.49536133 190.6640625 C-47.76382813 190.65246094 -47.76382813 190.65246094 -45.99731445 190.640625 C-44.93649658 190.62902344 -43.87567871 190.61742187 -42.78271484 190.60546875 C-40.0871582 190.703125 -40.0871582 190.703125 -37.0871582 191.703125 C-35.90415847 203.14501308 -35.97293275 214.52662417 -36.0246582 226.015625 C-36.0452832 232.5125 -36.0659082 239.009375 -36.0871582 245.703125 C-14.9671582 245.703125 6.1528418 245.703125 27.9128418 245.703125 C27.9128418 266.823125 27.9128418 287.943125 27.9128418 309.703125 C11.48159957 309.99279973 11.48159957 309.99279973 4.50073242 310.10742188 C-0.27072649 310.18579527 -5.04214863 310.2652958 -9.81347656 310.35131836 C-13.65834249 310.42056898 -17.50326151 310.4849232 -21.34826851 310.54582024 C-22.81837525 310.56997654 -24.28845363 310.5959252 -25.75849724 310.62365913 C-27.81063267 310.66207463 -29.86277469 310.69423109 -31.91503906 310.72485352 C-33.08530136 310.74483902 -34.25556366 310.76482452 -35.46128845 310.78541565 C-38.0871582 310.703125 -38.0871582 310.703125 -39.0871582 309.703125 C-39.19998398 307.90372807 -39.24396465 306.09997174 -39.26074219 304.29711914 C-39.27423203 303.14244644 -39.28772186 301.98777374 -39.30162048 300.79811096 C-39.31727806 298.91224525 -39.31727806 298.91224525 -39.33325195 296.98828125 C-39.35775118 295.03110434 -39.38226162 293.07392748 -39.40744877 291.1167593 C-39.46837831 286.27104443 -39.51895003 281.42523242 -39.56396484 276.5793457 C-39.58956949 273.86485291 -39.6203658 271.1505115 -39.65675354 268.43614197 C-39.69072373 265.87321979 -39.71656815 263.31017528 -39.73374939 260.74708557 C-39.75039139 259.58926071 -39.76703339 258.43143585 -39.78417969 257.23852539 C-39.79448715 256.21561905 -39.80479462 255.19271271 -39.81541443 254.1388092 C-39.85059833 251.52345635 -39.85059833 251.52345635 -42.0871582 249.703125 C-44.75681935 249.37091099 -44.75681935 249.37091099 -47.91381836 249.38427734 C-49.13493317 249.36440765 -50.35604797 249.34453796 -51.61416626 249.32406616 C-52.9515159 249.31218892 -54.28886746 249.30052611 -55.6262207 249.2890625 C-56.99100933 249.27035751 -58.35578631 249.2507846 -59.72055054 249.2303772 C-63.31422063 249.17897895 -66.90792826 249.13939473 -70.50177002 249.10223389 C-74.16834821 249.06224222 -77.83477179 249.01123558 -81.5012207 248.9609375 C-88.69647513 248.86304288 -95.89160304 248.78359324 -103.0871582 248.703125 C-103.4171582 230.223125 -103.7471582 211.743125 -104.0871582 192.703125 C-110.26783149 192.68609667 -110.26783149 192.68609667 -116.0871582 193.703125 C-116.4171582 193.043125 -116.7471582 192.383125 -117.0871582 191.703125 C-117.8709082 191.7753125 -118.6546582 191.8475 -119.4621582 191.921875 C-131.08744083 192.82383658 -142.68960858 192.76688836 -154.34106445 192.66601562 C-155.03330109 192.66178589 -155.72553772 192.65755615 -156.43875122 192.65319824 C-158.35136766 192.64126738 -160.26394532 192.62353315 -162.17651367 192.60546875 C-165.0254892 192.49855314 -165.0254892 192.49855314 -167.0871582 193.703125 C-167.0871582 193.043125 -167.0871582 192.383125 -167.0871582 191.703125 C-168.09782349 191.81901978 -168.09782349 191.81901978 -169.12890625 191.93725586 C-180.39577088 193.02666126 -191.60236024 192.58481936 -202.8996582 192.265625 C-204.96018946 192.21228368 -207.02073639 192.15954458 -209.08129883 192.10742188 C-214.08345975 191.97959598 -219.08533806 191.84363094 -224.0871582 191.703125 C-224.5821582 192.693125 -224.5821582 192.693125 -225.0871582 193.703125 C-226.1496582 191.890625 -226.1496582 191.890625 -227.0871582 189.703125 C-226.7571582 188.713125 -226.4271582 187.723125 -226.0871582 186.703125 C-226.00371386 184.85234283 -225.97982829 182.99863314 -225.98950195 181.14599609 C-225.99280518 180.00826752 -225.9961084 178.87053894 -225.99951172 177.69833374 C-226.00781006 176.47014923 -226.0161084 175.24196472 -226.0246582 173.9765625 C-226.02844482 172.71800446 -226.03223145 171.45944641 -226.03613281 170.16275024 C-226.04837548 166.13450671 -226.0668119 162.10633342 -226.0871582 158.078125 C-226.11390106 152.77344241 -226.13367357 147.4687915 -226.1496582 142.1640625 C-226.15795654 140.93182953 -226.16625488 139.69959656 -226.17480469 138.43002319 C-226.17975952 136.73288681 -226.17975952 136.73288681 -226.18481445 135.00146484 C-226.19266968 133.49947037 -226.19266968 133.49947037 -226.20068359 131.96713257 C-226.0871582 129.703125 -226.0871582 129.703125 -225.0871582 128.703125 C-223.50560973 128.60718275 -221.91976696 128.5812454 -220.33531189 128.58287048 C-219.30741043 128.58149582 -218.27950897 128.58012115 -217.22045898 128.57870483 C-216.08326416 128.58230011 -214.94606934 128.58589539 -213.77441406 128.58959961 C-212.58433243 128.58945358 -211.39425079 128.58930756 -210.16810608 128.5891571 C-206.89552547 128.58973606 -203.62298714 128.59476519 -200.35041499 128.60173106 C-196.93377156 128.60796533 -193.51712737 128.60856846 -190.10047913 128.60975647 C-183.62646553 128.61286957 -177.15246874 128.62108267 -170.67846256 128.63110596 C-162.58748412 128.64336186 -154.49650298 128.64884972 -146.40551758 128.65429688 C-131.96605135 128.6640481 -117.52662181 128.68407837 -103.0871582 128.703125 C-103.4171582 107.913125 -103.7471582 87.123125 -104.0871582 65.703125 C-82.6371582 65.703125 -61.1871582 65.703125 -39.0871582 65.703125 C-39.12677108 44.68565621 -39.12677108 44.68565621 -39.17724609 23.66821289 C-39.18016495 21.04573609 -39.18271358 18.42325884 -39.18481445 15.80078125 C-39.18873451 14.77216225 -39.18873451 14.77216225 -39.19273376 13.72276306 C-39.20001454 11.71240361 -39.2004966 9.70202302 -39.20068359 7.69165039 C-39.20290421 6.55691788 -39.20512482 5.42218536 -39.20741272 4.25306702 C-39.0871582 1.703125 -39.0871582 1.703125 -38.0871582 0.703125 C-25.46952135 -0.83519431 -12.67346866 -0.29896867 0 0 Z " fill="#FE565D" transform="translate(300.087158203125,53.296875)"/>
<path d="M0 0 C0.09409479 2.02494231 0.11743122 4.0531987 0.11352539 6.08032227 C0.11340454 7.39987915 0.11328369 8.71943604 0.11315918 10.07897949 C0.10812269 11.49145555 0.10295606 12.90393115 0.09765625 14.31640625 C0.09664917 15.59318237 0.09564209 16.8699585 0.09460449 18.1854248 C0.08935266 22.97779227 0.07539156 27.77014699 0.0625 32.5625 C0.041875 43.266875 0.02125 53.97125 0 65 C-21.78 65 -43.56 65 -66 65 C-66 43.88 -66 22.76 -66 1 C-66.99 0.67 -67.98 0.34 -69 0 C-65.90191254 -0.89738327 -63.07574856 -1.15473681 -59.85522461 -1.22119141 C-58.31728493 -1.25595078 -58.31728493 -1.25595078 -56.74827576 -1.29141235 C-55.64411819 -1.3112619 -54.53996063 -1.33111145 -53.40234375 -1.3515625 C-52.25770157 -1.37471527 -51.11305939 -1.39786804 -49.93373108 -1.42172241 C-47.50868106 -1.46934784 -45.08358311 -1.51458359 -42.65844727 -1.55761719 C-38.97587275 -1.62430511 -35.29365715 -1.70227773 -31.61132812 -1.78125 C-29.25001302 -1.82620987 -26.88868508 -1.87050168 -24.52734375 -1.9140625 C-23.4373558 -1.93796051 -22.34736786 -1.96185852 -21.22434998 -1.98648071 C-2.29141171 -2.29141171 -2.29141171 -2.29141171 0 0 Z " fill="#FE565D" transform="translate(140,55)"/>
<path d="M0 0 C21.78 0 43.56 0 66 0 C66 21.12 66 42.24 66 64 C63.21866931 65.39066535 61.00879809 65.07662585 57.89794922 65.02172852 C55.94924927 64.99109314 55.94924927 64.99109314 53.96118164 64.95983887 C52.57568096 64.93299703 51.19018288 64.90602056 49.8046875 64.87890625 C48.54857666 64.85824097 47.29246582 64.83757568 45.99829102 64.81628418 C41.29042963 64.73731415 36.58272244 64.64935877 31.875 64.5625 C21.35625 64.376875 10.8375 64.19125 0 64 C0 42.88 0 21.76 0 0 Z " fill="#FE565D" transform="translate(74,299)"/>
<path d="M0 0 C39.27 0 78.54 0 119 0 C119.33 20.13 119.66 40.26 120 61 C121.65 61.33 123.3 61.66 125 62 C125 62.33 125 62.66 125 63 C123.35 63 121.7 63 120 63 C120 80.82 120 98.64 120 117 C138.81 117.33 157.62 117.66 177 118 C177 118.33 177 118.66 177 119 C157.53 119 138.06 119 118 119 C117.67 100.52 117.34 82.04 117 63 C110.81932671 62.98297167 110.81932671 62.98297167 105 64 C104.67 63.34 104.34 62.68 104 62 C101.36 62 98.72 62 96 62 C96 61.67 96 61.34 96 61 C103.26 61 110.52 61 118 61 C118 41.2 118 21.4 118 1 C79.06 1 40.12 1 0 1 C0 0.67 0 0.34 0 0 Z " fill="#FE343C" transform="translate(79,183)"/>
<path d="M0 0 C0.33 0 0.66 0 1 0 C1 21.12 1 42.24 1 64 C0.01 64.495 0.01 64.495 -1 65 C-1.99 64.34 -2.98 63.68 -4 63 C-3.01 63 -2.02 63 -1 63 C-1.00222061 62.22547989 -1.00444122 61.45095978 -1.00672913 60.65296936 C-1.02673134 53.36878979 -1.04197377 46.08462345 -1.05181217 38.80042362 C-1.05704014 35.05516963 -1.06413622 31.30993824 -1.07543945 27.56469727 C-1.08627141 23.95318313 -1.09227749 20.34169079 -1.09487724 16.73016167 C-1.09673094 15.34939671 -1.10035049 13.968633 -1.10573006 12.58787727 C-1.11294447 10.66024048 -1.11340809 8.73258193 -1.11352539 6.80493164 C-1.115746 5.70572891 -1.11796661 4.60652618 -1.12025452 3.47401428 C-1 1 -1 1 0 0 Z " fill="#FE4D53" transform="translate(139,299)"/>
<path d="M0 0 C2.28774596 0.05335803 4.57550644 0.10609687 6.86328125 0.15820312 C12.40904169 0.28584014 17.95457471 0.42108335 23.5 0.5625 C23.5 0.8925 23.5 1.2225 23.5 1.5625 C2.38 1.8925 -18.74 2.2225 -40.5 2.5625 C-40.83 14.7725 -41.16 26.9825 -41.5 39.5625 C-41.83 39.5625 -42.16 39.5625 -42.5 39.5625 C-42.52464849 34.16903012 -42.54283531 28.77559275 -42.55493164 23.38208008 C-42.55997231 21.54581125 -42.56680477 19.70954646 -42.57543945 17.87329102 C-42.58751672 15.23973599 -42.59323081 12.60623384 -42.59765625 9.97265625 C-42.60281754 9.14661392 -42.60797882 8.32057159 -42.61329651 7.46949768 C-42.61349205 5.50013632 -42.56204152 3.53088386 -42.5 1.5625 C-36.11398382 -4.82351618 -8.42932461 -0.21511509 0 0 Z " fill="#FE6368" transform="translate(303.5,53.4375)"/>
<path d="M0 0 C21.12 0 42.24 0 64 0 C64 2.97 64 5.94 64 9 C60.5 5.5 60.5 5.5 57 2 C54.49310171 1.6682747 54.49310171 1.6682747 51.54052734 1.68115234 C50.39949554 1.66128265 49.25846375 1.64141296 48.08285522 1.62094116 C46.84637238 1.60938995 45.60988953 1.59783875 44.3359375 1.5859375 C42.4424205 1.55688828 42.4424205 1.55688828 40.51065063 1.5272522 C37.15365788 1.47750955 33.79677685 1.43627428 30.43963623 1.39910889 C27.01434336 1.35911153 23.58921854 1.30799981 20.1640625 1.2578125 C13.44281619 1.1615994 6.72149695 1.07659418 0 1 C0 0.67 0 0.34 0 0 Z " fill="#FE484E" transform="translate(199,300)"/>
<path d="M0 0 C0.33 0 0.66 0 1 0 C2.28571429 8.42857143 2.28571429 8.42857143 1 13 C-0.9078584 9.8250906 -1.1609041 7.89414789 -0.625 4.25 C-0.51414062 3.45078125 -0.40328125 2.6515625 -0.2890625 1.828125 C-0.19367188 1.22484375 -0.09828125 0.6215625 0 0 Z " fill="#FF3F47" transform="translate(262,148)"/>
<path d="M0 0 C0 0.99 0 1.98 0 3 C-6.93 2.505 -6.93 2.505 -14 2 C-14 1.67 -14 1.34 -14 1 C-12.04175306 0.83232136 -10.08339945 0.66588795 -8.125 0.5 C-6.48917969 0.36078125 -6.48917969 0.36078125 -4.8203125 0.21875 C-3.21670436 0.09437042 -1.60842449 0 0 0 Z " fill="#FE333B" transform="translate(253,244)"/>
<path d="M0 0 C4.29 0.33 8.58 0.66 13 1 C13 1.33 13 1.66 13 2 C6.565 2.495 6.565 2.495 0 3 C0 2.01 0 1.02 0 0 Z " fill="#FE323A" transform="translate(205,244)"/>
<path d="M0 0 C2.97 0 5.94 0 9 0 C9 0.33 9 0.66 9 1 C6.03 1 3.06 1 0 1 C0 0.67 0 0.34 0 0 Z " fill="#FF5A5A" transform="translate(230,117)"/>
<path d="M0 0 C0.33 0.99 0.66 1.98 1 3 C-0.98 3 -2.96 3 -5 3 C-5 2.67 -5 2.34 -5 2 C-3.35 2 -1.7 2 0 2 C0 1.34 0 0.68 0 0 Z " fill="#FF5155" transform="translate(259,115)"/>
<path d="M0 0 C1.98 0 3.96 0 6 0 C6 0.33 6 0.66 6 1 C4.02 1 2.04 1 0 1 C0 0.67 0 0.34 0 0 Z " fill="#FF5C5C" transform="translate(219,303)"/>
<path d="M0 0 C1.65 0 3.3 0 5 0 C5 0.33 5 0.66 5 1 C3.35 1 1.7 1 0 1 C0 0.67 0 0.34 0 0 Z " fill="#FF4C4C" transform="translate(234,303)"/>
<path d="M0 0 C0.33 0 0.66 0 1 0 C1 1.65 1 3.3 1 5 C0.67 5 0.34 5 0 5 C0 3.35 0 1.7 0 0 Z " fill="#FF0000" transform="translate(259,88)"/>
<path d="M0 0 C0.66 0 1.32 0 2 0 C1.67 0.66 1.34 1.32 1 2 C0.67 1.34 0.34 0.68 0 0 Z " fill="#FF8080" transform="translate(277,364)"/>
<path d="M0 0 C0.33 0.66 0.66 1.32 1 2 C0.34 1.67 -0.32 1.34 -1 1 C-0.67 0.67 -0.34 0.34 0 0 Z " fill="#FF3838" transform="translate(259,360)"/>
<path d="M0 0 C0.66 0 1.32 0 2 0 C1.67 0.66 1.34 1.32 1 2 C0.67 1.34 0.34 0.68 0 0 Z " fill="#FF2A2A" transform="translate(71,183)"/>
<path d="M0 0 C3 1 3 1 3 1 Z " fill="#FF5555" transform="translate(105,180)"/>
<path d="M0 0 C3 1 3 1 3 1 Z " fill="#FF2A2A" transform="translate(226,117)"/>
<path d="M0 0 C3 1 3 1 3 1 Z " fill="#FF0000" transform="translate(205,117)"/>
<path d="M0 0 C2 1 2 1 2 1 Z " fill="#FF4040" transform="translate(296,365)"/>
<path d="M0 0 C2 1 2 1 2 1 Z " fill="#FF4040" transform="translate(137,365)"/>
<path d="M0 0 C2 1 2 1 2 1 Z " fill="#FF4040" transform="translate(119,365)"/>
<path d="M0 0 C2 1 2 1 2 1 Z " fill="#FF2A2A" transform="translate(77,364)"/>
<path d="" fill="#FF0000" transform="translate(0,0)"/>
<path d="" fill="#FF0000" transform="translate(0,0)"/>
<path d="" fill="#FF4040" transform="translate(0,0)"/>
<path d="M0 0 C2 1 2 1 2 1 Z " fill="#FF0000" transform="translate(253,303)"/>
<path d="M0 0 C2 1 2 1 2 1 Z " fill="#FF5D5D" transform="translate(231,303)"/>
<path d="M0 0 C2 1 2 1 2 1 Z " fill="#FF4040" transform="translate(212,303)"/>
<path d="M0 0 C2 1 2 1 2 1 Z " fill="#FF2A2A" transform="translate(206,303)"/>
<path d="M0 0 C2 1 2 1 2 1 Z " fill="#FF4040" transform="translate(103,247)"/>
<path d="" fill="#FF4040" transform="translate(0,0)"/>
<path d="M0 0 C2 1 2 1 2 1 Z " fill="#FF7676" transform="translate(194,180)"/>
<path d="M0 0 C2 1 2 1 2 1 Z " fill="#FF0000" transform="translate(171,180)"/>
<path d="M0 0 C2 1 2 1 2 1 Z " fill="#FF0000" transform="translate(125,180)"/>
<path d="M0 0 C2 1 2 1 2 1 Z " fill="#FF0000" transform="translate(98,180)"/>
<path d="M0 0 C2 1 2 1 2 1 Z " fill="#FF0000" transform="translate(91,180)"/>
<path d="M0 0 C2 1 2 1 2 1 Z " fill="#FF6161" transform="translate(141,119)"/>
<path d="" fill="#FF2A2A" transform="translate(0,0)"/>
<path d="M0 0 C2 1 2 1 2 1 Z " fill="#FF0000" transform="translate(251,117)"/>
<path d="M0 0 C2 1 2 1 2 1 Z " fill="#FF0000" transform="translate(246,117)"/>
<path d="" fill="#FF4040" transform="translate(0,0)"/>
<path d="" fill="#FF8080" transform="translate(0,0)"/>
<path d="" fill="#FF0000" transform="translate(0,0)"/>
<path d="" fill="#FF4040" transform="translate(0,0)"/>
<path d="" fill="#808080" transform="translate(0,0)"/>
<path d="" fill="#AA5555" transform="translate(0,0)"/>
<path d="" fill="#FF0000" transform="translate(0,0)"/>
<path d="" fill="#FF8080" transform="translate(0,0)"/>
<path d="" fill="#FF8080" transform="translate(0,0)"/>
<path d="" fill="#FF0000" transform="translate(0,0)"/>
<path d="" fill="#FF8080" transform="translate(0,0)"/>
<path d="" fill="#FF8080" transform="translate(0,0)"/>
<path d="" fill="#FF0000" transform="translate(0,0)"/>
<path d="" fill="#FF8080" transform="translate(0,0)"/>
<path d="" fill="#FF0000" transform="translate(0,0)"/>
<path d="" fill="#FF0000" transform="translate(0,0)"/>
<path d="" fill="#FF0000" transform="translate(0,0)"/>
<path d="" fill="#FF0000" transform="translate(0,0)"/>
<path d="" fill="#FF0000" transform="translate(0,0)"/>
<path d="" fill="#FF0000" transform="translate(0,0)"/>
<path d="" fill="#FF0000" transform="translate(0,0)"/>
<path d="" fill="#FF0000" transform="translate(0,0)"/>
<path d="" fill="#FF0000" transform="translate(0,0)"/>
<path d="" fill="#FF8080" transform="translate(0,0)"/>
<path d="" fill="#FF0000" transform="translate(0,0)"/>
<path d="" fill="#FF0000" transform="translate(0,0)"/>
<path d="" fill="#FF0000" transform="translate(0,0)"/>
<path d="" fill="#FF0000" transform="translate(0,0)"/>
<path d="" fill="#FF0000" transform="translate(0,0)"/>
<path d="" fill="#FF0000" transform="translate(0,0)"/>
<path d="" fill="#FF0000" transform="translate(0,0)"/>
<path d="" fill="#FF0000" transform="translate(0,0)"/>
<path d="" fill="#FF0000" transform="translate(0,0)"/>
<path d="" fill="#FF8080" transform="translate(0,0)"/>
<path d="" fill="#FF0000" transform="translate(0,0)"/>
<path d="" fill="#FF0000" transform="translate(0,0)"/>
<path d="" fill="#FF0000" transform="translate(0,0)"/>
<path d="" fill="#FF0000" transform="translate(0,0)"/>
<path d="" fill="#FF5555" transform="translate(0,0)"/>
<path d="" fill="#FF0000" transform="translate(0,0)"/>
<path d="" fill="#FF8080" transform="translate(0,0)"/>
<path d="" fill="#FF8080" transform="translate(0,0)"/>
<path d="" fill="#FF0000" transform="translate(0,0)"/>
<path d="" fill="#FF0000" transform="translate(0,0)"/>
<path d="" fill="#FF8080" transform="translate(0,0)"/>
<path d="" fill="#FF0000" transform="translate(0,0)"/>
<path d="" fill="#FF8080" transform="translate(0,0)"/>
<path d="" fill="#FF0000" transform="translate(0,0)"/>
<path d="" fill="#FF8080" transform="translate(0,0)"/>
<path d="" fill="#FF8080" transform="translate(0,0)"/>
<path d="" fill="#FF8080" transform="translate(0,0)"/>
<path d="" fill="#FF8080" transform="translate(0,0)"/>
<path d="" fill="#FF6D6D" transform="translate(0,0)"/>
<path d="" fill="#FF8080" transform="translate(0,0)"/>
<path d="" fill="#FF0000" transform="translate(0,0)"/>
<path d="" fill="#FF8080" transform="translate(0,0)"/>
<path d="" fill="#FF8080" transform="translate(0,0)"/>
<path d="" fill="#FF8080" transform="translate(0,0)"/>
<path d="" fill="#FF8080" transform="translate(0,0)"/>
<path d="" fill="#FF5555" transform="translate(0,0)"/>
<path d="" fill="#FF0000" transform="translate(0,0)"/>
<path d="" fill="#FF8080" transform="translate(0,0)"/>
<path d="" fill="#FF8080" transform="translate(0,0)"/>
<path d="" fill="#FF0000" transform="translate(0,0)"/>
<path d="" fill="#FF0000" transform="translate(0,0)"/>
<path d="" fill="#FF0000" transform="translate(0,0)"/>
<path d="" fill="#FF8080" transform="translate(0,0)"/>
<path d="" fill="#FF0000" transform="translate(0,0)"/>
<path d="" fill="#FF0000" transform="translate(0,0)"/>
<path d="" fill="#FF0000" transform="translate(0,0)"/>
<path d="" fill="#FF0000" transform="translate(0,0)"/>
<path d="" fill="#FF0000" transform="translate(0,0)"/>
<path d="" fill="#FF0000" transform="translate(0,0)"/>
<path d="" fill="#FF0000" transform="translate(0,0)"/>
<path d="" fill="#FF8080" transform="translate(0,0)"/>
<path d="" fill="#FF0000" transform="translate(0,0)"/>
<path d="" fill="#FF0000" transform="translate(0,0)"/>
<path d="" fill="#FF8080" transform="translate(0,0)"/>
<path d="" fill="#FF0000" transform="translate(0,0)"/>
<path d="" fill="#FF0000" transform="translate(0,0)"/>
<path d="" fill="#FF0000" transform="translate(0,0)"/>
<path d="" fill="#FF0000" transform="translate(0,0)"/>
<path d="" fill="#FF0000" transform="translate(0,0)"/>
<path d="" fill="#FF0000" transform="translate(0,0)"/>
<path d="" fill="#FF0000" transform="translate(0,0)"/>
<path d="" fill="#FF00FF" transform="translate(0,0)"/>
<path d="" fill="#FF0000" transform="translate(0,0)"/>
<path d="" fill="#FF5555" transform="translate(0,0)"/>
<path d="" fill="#FF0000" transform="translate(0,0)"/>
<path d="" fill="#FF8080" transform="translate(0,0)"/>
<path d="" fill="#FF0000" transform="translate(0,0)"/>
<path d="" fill="#FF0000" transform="translate(0,0)"/>
<path d="" fill="#FF0000" transform="translate(0,0)"/>
<path d="" fill="#FF0000" transform="translate(0,0)"/>
<path d="" fill="#FF0000" transform="translate(0,0)"/>
<path d="" fill="#FF0000" transform="translate(0,0)"/>
<path d="" fill="#FF0000" transform="translate(0,0)"/>
<path d="" fill="#FF0000" transform="translate(0,0)"/>
<path d="" fill="#FF8080" transform="translate(0,0)"/>
<path d="" fill="#FF8080" transform="translate(0,0)"/>
<path d="" fill="#FF0000" transform="translate(0,0)"/>
<path d="" fill="#FF0000" transform="translate(0,0)"/>
<path d="" fill="#FF8080" transform="translate(0,0)"/>
<path d="" fill="#FF0000" transform="translate(0,0)"/>
<path d="" fill="#FF0000" transform="translate(0,0)"/>
<path d="" fill="#FF8080" transform="translate(0,0)"/>
<path d="" fill="#FF0000" transform="translate(0,0)"/>
<path d="" fill="#FF0000" transform="translate(0,0)"/>
<path d="" fill="#FF0000" transform="translate(0,0)"/>
<path d="" fill="#FF8080" transform="translate(0,0)"/>
<path d="" fill="#FF0000" transform="translate(0,0)"/>
<path d="" fill="#FF8080" transform="translate(0,0)"/>
<path d="" fill="#FF0000" transform="translate(0,0)"/>
<path d="" fill="#FF0000" transform="translate(0,0)"/>
<path d="" fill="#FF0000" transform="translate(0,0)"/>
<path d="" fill="#FF0000" transform="translate(0,0)"/>
<path d="" fill="#FF0000" transform="translate(0,0)"/>
<path d="" fill="#FF0000" transform="translate(0,0)"/>
<path d="" fill="#FF0000" transform="translate(0,0)"/>
<path d="" fill="#FF0000" transform="translate(0,0)"/>
<path d="" fill="#FF0000" transform="translate(0,0)"/>
<path d="" fill="#FF8080" transform="translate(0,0)"/>
<path d="" fill="#FF0000" transform="translate(0,0)"/>
<path d="" fill="#FF0000" transform="translate(0,0)"/>
<path d="" fill="#FF0000" transform="translate(0,0)"/>
<path d="" fill="#FF5555" transform="translate(0,0)"/>
<path d="" fill="#FF8080" transform="translate(0,0)"/>
<path d="" fill="#FF0000" transform="translate(0,0)"/>
<path d="" fill="#FF0000" transform="translate(0,0)"/>
<path d="" fill="#FF0000" transform="translate(0,0)"/>
<path d="" fill="#FF8080" transform="translate(0,0)"/>
<path d="" fill="#FF0000" transform="translate(0,0)"/>
<path d="" fill="#FF0000" transform="translate(0,0)"/>
<path d="" fill="#FF0000" transform="translate(0,0)"/>
<path d="" fill="#FF0000" transform="translate(0,0)"/>
<path d="" fill="#FF0000" transform="translate(0,0)"/>
<path d="" fill="#FF0000" transform="translate(0,0)"/>
<path d="" fill="#FF0000" transform="translate(0,0)"/>
<path d="" fill="#FF0000" transform="translate(0,0)"/>
<path d="" fill="#FF8080" transform="translate(0,0)"/>
<path d="" fill="#808080" transform="translate(0,0)"/>
<path d="" fill="#FF0000" transform="translate(0,0)"/>
</svg>
